<?xml version="1.0" standalone="no"?>
<svg xmlns="http://www.w3.org/2000/svg" xmlns:xlink="http://www.w3.org/1999/xlink" height="1000px" width="2000px">
  <defs>
    <pattern id="doodad" width="50" height="50" viewBox="0 0 40 40" patternUnits="userSpaceOnUse" patternTransform="">
      <rect width="100%" height="100%" fill="rgba(12, 10, 9,1)"/>
      <path d="M-20 31l20-20l20 20l20-20l20 20l20-20l20 20v-2l-20-20l-20 20l-20-20l-20 20l-20-20l-20 20zM-20-9l20-20l20 20l20-20l20 20l20-20l20 20v-2l-20-20l-20 20l-20-20l-20 20l-20-20l-20 20zM-20 71l20-20l20 20l20-20l20 20l20-20l20 20v-2l-20-20l-20 20l-20-20l-20 20l-20-20l-20 20z " fill="rgba(120, 113, 108,1)"/>
      <path d="M-20 51l20-20l20 20l20-20l20 20l20-20l20 20v-2l-20-20l-20 20l-20-20l-20 20l-20-20l-20 20zM-20 11l20-20l20 20l20-20l20 20l20-20l20 20v-2l-20-20l-20 20l-20-20l-20 20l-20-20l-20 20zM-20 91l20-20l20 20l20-20l20 20l20-20l20 20v-2l-20-20l-20 20l-20-20l-20 20l-20-20l-20 20z " fill="rgba(68, 64, 60,1)"/>
    </pattern>
  </defs>
  <rect fill="url(#doodad)" height="200%" width="200%"/>
</svg>
