<?xml version="1.0" standalone="no"?>
<svg xmlns="http://www.w3.org/2000/svg" xmlns:xlink="http://www.w3.org/1999/xlink" height="984px" width="1885px">
   <defs>
    <pattern id="doodad" width="40" height="40" viewBox="0 0 40 40" patternUnits="userSpaceOnUse" patternTransform="">
      <rect width="100%" height="100%" fill="rgba(12, 10, 9,1)"/>
      <path d="M20 9a 20 20 0 0 1 40 0h2a 2 2 0 0 1-4 0a 18 18 0 0 0-36 0a 2 2 0 0 1-4 0a 18 18 0 0 0-36 0h-2a 20 20 0 0 1 40 0z" fill="rgba(120, 113, 108,1)"/>
      <path d="M0 29.5a 20 20 0 0 1 40 0h1a 1 1 0 0 1-2 0a 19 19 0 0 0-38 0a 1 1 0 0 1-2 0z" fill="rgba(87, 83, 78,1)"/>
      <path d="M20 49a 20 20 0 0 1 40 0h2a 2 2 0 0 1-4 0a 18 18 0 0 0-36 0a 2 2 0 0 1-4 0a 18 18 0 0 0-36 0h-2a 20 20 0 0 1 40 0z" fill="rgba(120, 113, 108,1)"/>
    </pattern>
  </defs>
  <rect fill="url(#doodad)" height="200%" width="200%"/>
</svg>

