<?xml version="1.0" standalone="no"?>
<svg xmlns="http://www.w3.org/2000/svg" xmlns:xlink="http://www.w3.org/1999/xlink" height="984px" width="1885px">
  <defs>
    <pattern id="doodad" width="30" height="30" viewBox="0 0 40 40" patternUnits="userSpaceOnUse" patternTransform="">
      <rect width="100%" height="100%" fill="rgba(12, 10, 9,1)"/>
      <path d="M0 9a 11 11 0 0 1 11 11a 9 9 0 0 0 9 9v2a-11-11 0 0 1-11-11a-9-9 0 0 0-9-9z" fill="rgba(120, 113, 108,1)"/>
      <path d="M20 9a 9-9 0 0 0 9-9a 11-11 0 0 1 11-11v2a-9 9 0 0 0-9 9a-11 11 0 0 1-11 11zM20 49a 9-9 0 0 0 9-9a 11-11 0 0 1 11-11v2a-9 9 0 0 0-9 9a-11 11 0 0 1-11 11z" fill="rgba(68, 64, 60,1)"/>
    </pattern>
  </defs>
  <rect fill="url(#doodad)" height="200%" width="200%"/>
</svg>

