{"extensionsUsed" : ["KHR_materials_transmission"], "accessors" : [{"bufferView" : 0, "byteOffset" : 0, "componentType" : 5123, "count" : 60, "type" : "SCALAR", "max" : [59], "min" : [0]}, {"bufferView" : 1, "byteOffset" : 0, "componentType" : 5126, "count" : 60, "type" : "VEC3", "max" : [0.8944200277328491, 0.8506399989128113, 1], "min" : [-0.8944200277328491, -0.8506399989128113, -1], "name" : "POSITION"}, {"bufferView" : 1, "byteOffset" : 12, "componentType" : 5126, "count" : 60, "type" : "VEC3", "max" : [0.9822499752044678, 0.9341740012168884, 0.7946572303771973], "min" : [-0.9822499752044678, -0.9341740012168884, -0.7946572303771973], "name" : "NORMAL"}, {"bufferView" : 0, "byteOffset" : 120, "componentType" : 5123, "count" : 59976, "type" : "SCALAR", "max" : [49979], "min" : [0]}, {"bufferView" : 2, "byteOffset" : 0, "componentType" : 5126, "count" : 49980, "type" : "VEC3", "max" : [545.7134399414062, 360.02691650390625, 325.3577575683594], "min" : [-448.987060546875, -316.4147644042969, -589.1316528320312], "name" : "POSITION"}, {"bufferView" : 2, "byteOffset" : 12, "componentType" : 5126, "count" : 49980, "type" : "VEC3", "max" : [1, 0.9764705896377563, 1], "min" : [0.6274510025978088, 0, 0], "name" : "COLOR_0"}, {"bufferView" : 2, "byteOffset" : 24, "componentType" : 5126, "count" : 49980, "type" : "VEC3", "max" : [0.9995702505111694, 0.9998400211334229, 1.0000044107437134], "min" : [-0.9998520016670227, -0.9996183514595032, -0.9999092817306519], "name" : "NORMAL"}], "asset" : {"generator" : "Aspose.3D 23.9.0", "version" : "2.0"}, "buffers" : [{"uri" : "data:application/octet-stream;base64,", "byteLength" : 2280660}], "bufferViews" : [{"buffer" : 0, "byteOffset" : 0, "byteLength" : 120072, "target" : 34963}, {"buffer" : 0, "byteOffset" : 120076, "byteLength" : 1440, "byteStride" : 24, "target" : 34962}, {"buffer" : 0, "byteOffset" : 121520, "byteLength" : 2159136, "byteStride" : 36, "target" : 34962}], "materials" : [{"name" : "earth", "extensions" : {"KHR_materials_transmission" : {"transmissionFactor" : 0.5802469136}}, "pbrMetallicRoughness" : {"baseColorFactor" : [0.004275796891156811, 0.010139914171127765, 0.025724065098789453, 0.4197530864], "metallicFactor" : 0.537037037, "roughnessFactor" : 0}, "emissiveFactor" : [0, 0, 0], "alphaMode" : "BLEND", "doubleSided" : true}, {"name" : "Material", "pbrMetallicRoughness" : {"baseColorFactor" : [1, 1, 1, 0.48765432099999995], "metallicFactor" : 1, "roughnessFactor" : 0.6296296296}, "emissiveFactor" : [0.16000000238, 0.16000000238, 0.16000000238], "alphaMode" : "BLEND", "doubleSided" : true}], "meshes" : [{"primitives" : [{"attributes" : {"POSITION" : 1, "NORMAL" : 2}, "indices" : 0, "material" : 0, "mode" : 4}]}, {"primitives" : [{"attributes" : {"POSITION" : 4, "COLOR_0" : 5, "NORMAL" : 6}, "indices" : 3, "material" : 1, "mode" : 4}]}], "nodes" : [{"mesh" : 0, "name" : "Earth_0"}, {"children" : [0], "name" : "Earth"}, {"mesh" : 1, "name" : "Plane.8968_0"}, {"children" : [2], "matrix" : [-0.17308, -0.07041, -0.60357, 0, 0.54896, -0.28723, -0.12391, 0, -0.26057, -0.5583400000000001, 0.13986, 0, -7.65117, -2.72466, -2.6878, 1], "name" : "Plane.8968"}, {"children" : [1, 3], "name" : "Root"}, {"children" : [4], "matrix" : [0.00811469554901123, 0, 0, 0, 0, 1.8018243672671087E-18, -0.00811469554901123, 0, 0, 0.00811469554901123, 1.8018243672671087E-18, 0, 0, 0, 0, 1], "name" : "Sketchfab_model"}], "scene" : 0, "scenes" : [{"nodes" : [5]}]}