<svg xmlns="http://www.w3.org/2000/svg" viewBox="0 0 500 500"><g id="freepik--background-simple--inject-47"><path d="M454.17,189.36l-2.39-3.53c-20.2-29.8-56.72-47.76-95.22-45.58a112.17,112.17,0,0,0-14.74,1.81c-35,6.71-65.47,30.41-78.09,60.76-7.43,17.85-9.5,38.4-23.6,52.57-18.33,18.44-49.47,19-76.84,18.25s-58.53-.11-76.78,18.4c-11.43,11.59-15.06,28.08-14.14,43.61,2.44,41.1,34.44,77.86,75.13,96.13s88.6,19.9,133.14,11.87C343,432.39,402.36,401.47,438,353.72S482.71,240.9,454.17,189.36Z" style="fill:#ebebeb"></path><circle cx="88.55" cy="92.17" r="45.6" style="fill:#ebebeb"></circle></g><g id="freepik--Document--inject-47"><rect x="102.84" y="67.8" width="300.65" height="383.74" transform="translate(-18.48 19.4) rotate(-4.23)" style="fill:#fff"></rect><path d="M117,462.65l0-.5L88.55,79l.5,0L389.38,56.69l0,.5,28.37,383.19-.5,0ZM89.62,79.88l28.26,381.7,298.83-22.12L388.45,57.76Z" style="fill:#263238"></path><rect x="281.76" y="76.91" width="81" height="5.2" transform="translate(-4.99 24.01) rotate(-4.23)" style="fill:#FACC15"></rect><path d="M361.49,113.76l-.49.09-1.43.15-5.24.48L337,115.92c-6.77.55-12.89,1-17.33,1.28l-5.26.31-1.43.06a2.38,2.38,0,0,1-.5,0,1.68,1.68,0,0,1,.49-.09l1.43-.16,5.24-.47L337,115.4c6.76-.56,12.88-1,17.32-1.29l5.26-.31,1.43-.06A1.48,1.48,0,0,1,361.49,113.76Z" style="fill:#FACC15"></path><path d="M366.33,133.31c0,.15-17.6,1.57-39.33,3.18s-39.37,2.79-39.38,2.65,17.6-1.56,39.34-3.17S366.32,133.17,366.33,133.31Z" style="fill:#263238"></path><path d="M367.66,158.24c0,.15-17.6,1.57-39.33,3.18S289,164.22,289,164.07s17.6-1.56,39.34-3.17S367.65,158.1,367.66,158.24Z" style="fill:#263238"></path><path d="M367.66,145.78c0,.14-17.6,1.56-39.33,3.17S289,151.75,289,151.61s17.6-1.57,39.34-3.18S367.65,145.64,367.66,145.78Z" style="fill:#263238"></path><path d="M202.45,320.34c0,.14-9.12.94-20.39,1.77s-20.42,1.4-20.43,1.25,9.12-.93,20.39-1.77S202.44,320.2,202.45,320.34Z" style="fill:#FACC15"></path><path d="M185.39,344.3c0,.15-12.22,1.17-27.32,2.29s-27.34,1.9-27.35,1.76,12.21-1.16,27.32-2.28S185.38,344.16,185.39,344.3Z" style="fill:#FACC15"></path><path d="M285,346.33c0,.14-34.36,2.8-76.76,5.94s-76.8,5.57-76.81,5.43,34.35-2.81,76.77-5.95S285,346.19,285,346.33Z" style="fill:#263238"></path><path d="M187.11,367.55c0,.14-12.22,1.16-27.31,2.28s-27.35,1.91-27.36,1.76,12.22-1.16,27.32-2.28S187.1,367.4,187.11,367.55Z" style="fill:#FACC15"></path><path d="M286.7,369.57c0,.15-34.36,2.81-76.76,5.95s-76.8,5.56-76.81,5.42,34.35-2.8,76.77-5.94S286.69,369.43,286.7,369.57Z" style="fill:#263238"></path><path d="M188.83,390.79c0,.14-12.22,1.16-27.31,2.28s-27.35,1.91-27.36,1.77,12.22-1.17,27.32-2.29S188.82,390.64,188.83,390.79Z" style="fill:#FACC15"></path><path d="M288.42,392.81c0,.15-34.36,2.81-76.76,5.95s-76.8,5.57-76.81,5.42,34.35-2.8,76.77-5.94S288.41,392.67,288.42,392.81Z" style="fill:#263238"></path><path d="M192.63,414.32c0,.14-12.23,1.16-27.32,2.28S138,418.51,138,418.36s12.22-1.16,27.32-2.28S192.61,414.17,192.63,414.32Z" style="fill:#FACC15"></path><path d="M292.22,416.34c0,.15-34.37,2.81-76.77,6s-76.8,5.57-76.81,5.42,34.36-2.8,76.77-5.94S292.2,416.2,292.22,416.34Z" style="fill:#263238"></path><rect x="133.06" y="316.38" width="18.8" height="11.94" transform="translate(-23.41 11.4) rotate(-4.23)" style="fill:#FACC15"></rect><rect x="139.26" y="328.31" width="7.55" height="3.74" transform="translate(-23.99 11.46) rotate(-4.23)" style="fill:#FACC15"></rect><path d="M149.81,331.42a38.53,38.53,0,0,1-6.28.83,37.68,37.68,0,0,1-6.33.3,39.24,39.24,0,0,1,6.28-.82A39.76,39.76,0,0,1,149.81,331.42Z" style="fill:#FACC15"></path><polygon points="302.87 302.18 314.59 295.75 326.13 300.13 315.32 306.93 302.87 302.18" style="fill:#FACC15"></polygon><polygon points="305.68 304.87 306.15 312.17 324.21 310.58 323.59 303.54 315.25 308.58 305.68 304.87" style="fill:#FACC15"></polygon><path d="M377,303.6c0,.15-9.12.94-20.39,1.77s-20.42,1.4-20.43,1.26,9.12-.94,20.39-1.78S377,303.46,377,303.6Z" style="fill:#FACC15"></path><path d="M335.13,328.7c0,.14-6.27.72-14,1.29s-14.05.93-14.06.78,6.27-.72,14-1.3S335.12,328.55,335.13,328.7Z" style="fill:#263238"></path><path d="M386.64,335c0,.15-17.63,1.57-39.39,3.18s-39.43,2.8-39.44,2.66,17.63-1.57,39.4-3.18S386.63,334.9,386.64,335Z" style="fill:#263238"></path><path d="M337.23,354.66c0,.15-6.26.73-14,1.3s-14,.93-14.05.78,6.26-.72,14-1.3S337.22,354.52,337.23,354.66Z" style="fill:#263238"></path><path d="M388.74,361c0,.15-17.63,1.57-39.39,3.18s-39.42,2.8-39.44,2.66,17.63-1.57,39.4-3.18S388.73,360.87,388.74,361Z" style="fill:#263238"></path><path d="M338.83,380.32c0,.15-6.27.73-14,1.3s-14,.92-14.06.78,6.27-.72,14-1.3S338.82,380.18,338.83,380.32Z" style="fill:#263238"></path><path d="M390.34,386.67c0,.15-17.63,1.57-39.39,3.18s-39.43,2.8-39.44,2.66,17.63-1.57,39.4-3.18S390.33,386.53,390.34,386.67Z" style="fill:#263238"></path><path d="M341.69,407.46c0,.14-6.26.72-14,1.3s-14,.92-14.05.78,6.26-.73,14-1.3S341.68,407.32,341.69,407.46Z" style="fill:#263238"></path><path d="M393.2,413.81c0,.14-17.63,1.56-39.39,3.18s-39.42,2.8-39.43,2.65,17.62-1.56,39.39-3.17S393.19,413.66,393.2,413.81Z" style="fill:#263238"></path><path d="M296.43,113a4.57,4.57,0,0,0,2.4-4.41,4.29,4.29,0,1,0-8.54.59,4.56,4.56,0,0,0,3,4c-6.49,1.47-5.66,8.59-5.66,8.59l15.53-1.08S303,113.51,296.43,113Z" style="fill:#FACC15"></path><path d="M321.73,213.82c0,.15-6.31.73-14.12,1.31s-14.15.93-14.16.79,6.31-.73,14.12-1.31S321.72,213.68,321.73,213.82Z" style="fill:#263238"></path><path d="M322.8,226.31c0,.14-6.31.73-14.12,1.31s-14.15.93-14.16.78,6.31-.73,14.12-1.3S322.79,226.17,322.8,226.31Z" style="fill:#263238"></path><path d="M377.66,211.15l-46,3.41a1.56,1.56,0,0,1-1.67-1.44h0a1.56,1.56,0,0,1,1.44-1.67l46-3.41a1.55,1.55,0,0,1,1.67,1.44h0A1.55,1.55,0,0,1,377.66,211.15Z" style="fill:#e0e0e0"></path><path d="M370.94,211.65l-39.31,2.91a1.56,1.56,0,0,1-1.67-1.44h0a1.56,1.56,0,0,1,1.44-1.67l39.31-2.91a1.56,1.56,0,0,1,1.67,1.44h0A1.57,1.57,0,0,1,370.94,211.65Z" style="fill:#FACC15"></path><path d="M378.53,222.9l-46,3.4a1.56,1.56,0,0,1-1.67-1.44h0a1.57,1.57,0,0,1,1.44-1.67l46-3.4a1.55,1.55,0,0,1,1.67,1.44h0A1.56,1.56,0,0,1,378.53,222.9Z" style="fill:#e0e0e0"></path><path d="M364.8,223.91l-32.3,2.39a1.56,1.56,0,0,1-1.67-1.44h0a1.57,1.57,0,0,1,1.44-1.67l32.3-2.39a1.56,1.56,0,0,1,1.67,1.44h0A1.56,1.56,0,0,1,364.8,223.91Z" style="fill:#FACC15"></path><path d="M324.16,239.06c0,.14-6.31.73-14.12,1.3s-14.15.93-14.16.79,6.31-.73,14.12-1.31S324.15,238.91,324.16,239.06Z" style="fill:#263238"></path><path d="M325.23,251.54c0,.15-6.31.73-14.12,1.31s-14.15.93-14.16.79,6.31-.73,14.12-1.31S325.22,251.4,325.23,251.54Z" style="fill:#263238"></path><path d="M380.09,236.38l-46,3.41a1.56,1.56,0,0,1-1.67-1.44h0a1.56,1.56,0,0,1,1.44-1.67l46-3.41a1.56,1.56,0,0,1,1.67,1.44h0A1.55,1.55,0,0,1,380.09,236.38Z" style="fill:#e0e0e0"></path><path d="M373.36,236.88l-39.3,2.91a1.56,1.56,0,0,1-1.67-1.44h0a1.56,1.56,0,0,1,1.44-1.67l39.3-2.91a1.56,1.56,0,0,1,1.67,1.44h0A1.55,1.55,0,0,1,373.36,236.88Z" style="fill:#FACC15"></path><path d="M381,248.13l-46,3.41a1.56,1.56,0,0,1-1.67-1.44h0a1.56,1.56,0,0,1,1.44-1.67l46-3.41a1.56,1.56,0,0,1,1.67,1.44h0A1.56,1.56,0,0,1,381,248.13Z" style="fill:#e0e0e0"></path><path d="M367.23,249.15l-32.3,2.39a1.56,1.56,0,0,1-1.67-1.44h0a1.56,1.56,0,0,1,1.44-1.67L367,246a1.56,1.56,0,0,1,1.67,1.44h0A1.56,1.56,0,0,1,367.23,249.15Z" style="fill:#FACC15"></path><path d="M326.84,264.85c0,.15-6.32.73-14.13,1.31s-14.15.93-14.16.79,6.31-.73,14.12-1.31S326.83,264.71,326.84,264.85Z" style="fill:#263238"></path><path d="M382.77,262.18l-46,3.4a1.56,1.56,0,0,1-1.67-1.44h0a1.58,1.58,0,0,1,1.44-1.67l46-3.4a1.57,1.57,0,0,1,1.68,1.44h0A1.57,1.57,0,0,1,382.77,262.18Z" style="fill:#e0e0e0"></path><path d="M362.27,263.69l-25.54,1.89a1.56,1.56,0,0,1-1.67-1.44h0a1.58,1.58,0,0,1,1.44-1.67L362,260.58a1.57,1.57,0,0,1,1.67,1.44h0A1.56,1.56,0,0,1,362.27,263.69Z" style="fill:#FACC15"></path><path d="M306.42,201.1l-1.62-2.85a7.67,7.67,0,1,0-1.83,2h0Z" style="fill:#FACC15"></path><path d="M365.53,190.25c0,.15-10.65,1.06-23.82,2s-23.85,1.65-23.86,1.51,10.65-1.05,23.82-2S365.52,190.11,365.53,190.25Z" style="fill:#FACC15"></path></g><g id="freepik--Character--inject-47"><polygon points="95.09 79.38 114.19 305.33 282.72 292.79 264.52 66.44 95.09 79.38" style="fill:#ebebeb"></polygon><rect x="109.9" y="64.5" width="167.03" height="226.92" transform="matrix(1, -0.07, 0.07, 1, -12.61, 14.77)" style="fill:#fafafa"></rect><path d="M118,297.81l0-.5L101.22,70.51l.49,0L268.78,58.1l0,.5,16.79,226.8-.5,0ZM102.29,71.43,119,296.74l165.57-12.26L267.86,59.18Z" style="fill:#263238"></path><path d="M234.81,92.9a2.41,2.41,0,0,1-.07-.38c0-.28-.09-.65-.16-1.12-.13-1-.32-2.47-.55-4.32s-.52-4.19-.85-6.85a35.86,35.86,0,0,0-.65-4.22,6.28,6.28,0,0,0-.91-2.09,3.61,3.61,0,0,0-1.84-1.41,4.91,4.91,0,0,0-4.72,1.2,8.92,8.92,0,0,0-2.42,5A35.6,35.6,0,0,0,223,91.22c.39,2.19.81,4.45,1.31,6.73a21.74,21.74,0,0,0,2.45,6.61,10.37,10.37,0,0,0,5.45,4.53,6.83,6.83,0,0,0,3.61.26,6.65,6.65,0,0,0,3.24-1.7,10.73,10.73,0,0,0,3.17-6.59,31,31,0,0,0-.19-7.34c-.54-4.84-1.06-9.5-1.56-14-.25-2.22-.49-4.39-.72-6.49s-.44-4.15-.82-6.09a20.7,20.7,0,0,0-1.71-5.42,11.7,11.7,0,0,0-3.21-4.06,12.64,12.64,0,0,0-8.44-2.55,10.47,10.47,0,0,0-6.27,2.34,8.34,8.34,0,0,0-2.4,3.52c-.32.94-.39,1.46-.43,1.46a6.92,6.92,0,0,1,.33-1.49,8.26,8.26,0,0,1,2.36-3.64,10.64,10.64,0,0,1,6.39-2.48,12.88,12.88,0,0,1,8.68,2.55,11.93,11.93,0,0,1,3.35,4.17,21.25,21.25,0,0,1,1.78,5.52c.38,2,.6,4,.85,6.12s.48,4.27.74,6.49c.5,4.44,1,9.11,1.58,13.94a31,31,0,0,1,.2,7.47,11.24,11.24,0,0,1-3.33,6.91,7.22,7.22,0,0,1-3.49,1.82,7.47,7.47,0,0,1-3.87-.27,11,11,0,0,1-5.73-4.76,22.54,22.54,0,0,1-2.49-6.77c-.5-2.3-.91-4.55-1.3-6.76a36,36,0,0,1-.35-12.71,9.4,9.4,0,0,1,2.58-5.18,5.27,5.27,0,0,1,5.11-1.25,4,4,0,0,1,2,1.56,6.63,6.63,0,0,1,.94,2.2,36.2,36.2,0,0,1,.62,4.28c.29,2.66.55,5,.76,6.85s.35,3.31.46,4.33c0,.48.08.85.1,1.13A2.29,2.29,0,0,1,234.81,92.9Z" style="fill:#263238"></path><path d="M166.22,84.87,153,79.38c-3.57,2.27-9.4,8.52-11,15.5a39,39,0,0,0-1,11.69c.22,4.23-.16,8.71-2.5,12.24-1.67,2.51-4.36,4.7-4.41,7.72-.05,3.47,3.54,6.46,2.81,9.86-.59,2.72-3.62,4.09-5.2,6.38-2.3,3.32-1.19,7.86.31,11.61,3.62,9.05-4.08,22.07,2.7,29.07,6.69-5.49,26.47-15.67,33.16-21.16a12.75,12.75,0,0,0,3.81-4.24c1.16-2.55.53-5.5-.07-8.23A243.5,243.5,0,0,1,166.22,84.87Z" style="fill:#263238"></path><path d="M245.28,240.94l-6.52-6.6L169.06,254s-3.83,30.64-3.44,32.6,0,7.56,0,7.56l96.19-7.5S262.9,260.57,245.28,240.94Z" style="fill:#263238"></path><path d="M187.91,267.58a2.82,2.82,0,0,1-.4.78c-.29.47-.71,1.16-1.31,2a15.74,15.74,0,0,1-2.38,2.6A11.13,11.13,0,0,1,180,275a24.36,24.36,0,0,1-7.73,1.15,21.28,21.28,0,0,1-2.36-.14,2.49,2.49,0,0,1-.86-.16c0-.08,1.24,0,3.22-.07a27.94,27.94,0,0,0,7.57-1.28,11.24,11.24,0,0,0,3.66-2,17.65,17.65,0,0,0,2.4-2.47C187.15,268.56,187.84,267.53,187.91,267.58Z" style="fill:#455a64"></path><path d="M210.84,290.7a3.77,3.77,0,0,1-.27-.95c-.14-.61-.33-1.51-.53-2.63-.42-2.23-.91-5.32-1.29-8.76s-.58-6.58-.66-8.84c0-1.13-.06-2-.05-2.69a3.18,3.18,0,0,1,.06-1,31.07,31.07,0,0,1,.36,3.65c.18,2.25.43,5.37.81,8.8s.81,6.52,1.13,8.76A27.23,27.23,0,0,1,210.84,290.7Z" style="fill:#455a64"></path><path d="M217.5,289.1c-.15,0-.74-5.18-1.32-11.59s-1-11.62-.81-11.64.74,5.18,1.32,11.59S217.64,289.09,217.5,289.1Z" style="fill:#455a64"></path><path d="M251.3,253.34a4.31,4.31,0,0,1-.65.79c-.44.49-1.09,1.18-2,2a21.43,21.43,0,0,1-3.25,2.58,13.08,13.08,0,0,1-4.76,1.88,9.58,9.58,0,0,1-5.08-.57,15.48,15.48,0,0,1-3.61-2.08,23.45,23.45,0,0,1-2.12-1.82,4.13,4.13,0,0,1-.7-.75c.06-.07,1.14.92,3,2.27a15.93,15.93,0,0,0,3.56,1.93,9.32,9.32,0,0,0,4.83.5,12.85,12.85,0,0,0,4.58-1.77,23.74,23.74,0,0,0,3.27-2.45C250.2,254.3,251.24,253.28,251.3,253.34Z" style="fill:#455a64"></path><path d="M256.63,272.74a4.24,4.24,0,0,1-.92.54l-2.57,1.34c-2.17,1.14-5.14,2.77-8.31,4.73s-6,3.9-8,5.33l-2.35,1.7a4,4,0,0,1-.9.58,5.15,5.15,0,0,1,.77-.74c.52-.45,1.29-1.08,2.26-1.84A92.05,92.05,0,0,1,253,274.29c1.11-.53,2-.94,2.66-1.2A3.68,3.68,0,0,1,256.63,272.74Z" style="fill:#455a64"></path><path d="M193.05,264.57c-.07,0-.31-.48-.63-1.33a17.46,17.46,0,0,1-.88-3.45,9.14,9.14,0,0,1,.2-3.58,3.28,3.28,0,0,1,.61-1.36,16,16,0,0,0-.29,4.87,29.71,29.71,0,0,0,.71,3.41A4.33,4.33,0,0,1,193.05,264.57Z" style="fill:#455a64"></path><path d="M197.25,264.82a4.68,4.68,0,0,1-.49-1.43,20.48,20.48,0,0,1-.65-3.6,9,9,0,0,1,.1-2,6,6,0,0,1,.55-1.59c.44-.85.89-1.24.93-1.2a10.08,10.08,0,0,1-.6,1.35,8,8,0,0,0-.46,3.45c.09,1.38.36,2.63.5,3.55A4.45,4.45,0,0,1,197.25,264.82Z" style="fill:#455a64"></path><path d="M223,262.4a18.46,18.46,0,0,0-5.77-13.32,6.17,6.17,0,0,1,1.74,1.39,15,15,0,0,1,3,4.47,14.82,14.82,0,0,1,1.21,5.24A6.31,6.31,0,0,1,223,262.4Z" style="fill:#455a64"></path><path d="M227.63,260.78a47.19,47.19,0,0,0-1.84-6.62,46.91,46.91,0,0,0-3.28-6,6.18,6.18,0,0,1,1.36,1.52,20.22,20.22,0,0,1,3.68,9.09A6.52,6.52,0,0,1,227.63,260.78Z" style="fill:#455a64"></path><path d="M209.92,257.33s.18-.27.7-.51a3.23,3.23,0,0,1,2.35-.09,3.16,3.16,0,0,1,1.4.93,3,3,0,0,1,.69,1.81,3.62,3.62,0,0,1-.55,2.06,3,3,0,0,1-1.88,1.34,3.43,3.43,0,0,1-3.77-1.85,3.24,3.24,0,0,1-.18-1.92,3.12,3.12,0,0,1,.67-1.55,3.32,3.32,0,0,1,2.13-1,1.08,1.08,0,0,1,.84.21,4.92,4.92,0,0,0-.82,0,3.23,3.23,0,0,0-1.87,1.06,2.78,2.78,0,0,0-.52,1.36,2.87,2.87,0,0,0,.18,1.66,3,3,0,0,0,3.23,1.54,2.84,2.84,0,0,0,2.06-2.87,2.62,2.62,0,0,0-.54-1.56,3,3,0,0,0-1.19-.85,3.23,3.23,0,0,0-2.16-.07C210.19,257.18,210,257.37,209.92,257.33Z" style="fill:#455a64"></path><path d="M147.62,160.25c-.55.67-16.59,10.89-19,17.47s1.47,33.42,2.14,38.06,9.77,22.16,9.77,22.16-1.91,7.56.59,12.22a16.93,16.93,0,0,0,7,6.74l16.12-8.83-10-45.26Z" style="fill:#FACC15"></path><path d="M149.37,207.79c.46-.65,1.08-1.07,1.46-1.56s1.2-.71,1.59-.24,0,1.34-.51,1.86c1.62.06,2.85-2.16,4.42-1.72a2,2,0,0,1,1,2.65,5,5,0,0,1-2.27,2.17,8.18,8.18,0,0,0-2.57,1.87c-.34.44-.56,1.11-.19,1.53.63.72,2.09-.13,2.65.64.37.52-.08,1.22-.51,1.7q-2.37,2.56-4.72,5.15a3.58,3.58,0,0,1-1.45,1.12,1.23,1.23,0,0,1-1.54-.63,1.44,1.44,0,0,1,.78-1.5,10.23,10.23,0,0,0,1.59-.88,1.16,1.16,0,0,0,.29-1.59c-.53-.54-1.43-.09-2,.38l-5.5,4.32a2.85,2.85,0,0,1-1.35.71,1,1,0,0,1-1.14-.77,1.39,1.39,0,0,1,.24-.75,13.78,13.78,0,0,1,4-4.41,7.07,7.07,0,0,0,1.77-1.44,1.82,1.82,0,0,0,.17-2.12,19.26,19.26,0,0,1-3.56,2.65c-.45.27-1.11.49-1.45.08s0-1,.37-1.45l5.69-6.68a2.83,2.83,0,0,1,1.8-1.22Z" style="fill:#fff"></path><path d="M157.3,145.61,156,153.52,144.16,163s-2.8,17.86-.13,36c0,0,17.35,47,17.77,49,.79,3.81,7.79,7,7.79,7s26.43.25,35.51-1.06,31-15.16,33.1-17,4.47-10.68,4.47-10.68l-16.16-45.26-.91-31.84-24.15-6.2-8.2-6.34Z" style="fill:#FACC15"></path><path d="M228.52,178.63c.46-.65,1.08-1.07,1.45-1.56s1.21-.71,1.6-.24,0,1.34-.52,1.86c1.63.06,2.86-2.16,4.43-1.72a2,2,0,0,1,1,2.65,5,5,0,0,1-2.27,2.17,8.18,8.18,0,0,0-2.57,1.87c-.34.45-.56,1.11-.19,1.53.62.72,2.09-.13,2.65.64.37.52-.08,1.22-.51,1.7q-2.37,2.57-4.72,5.15a3.58,3.58,0,0,1-1.45,1.12,1.22,1.22,0,0,1-1.54-.63,1.42,1.42,0,0,1,.78-1.49,11.18,11.18,0,0,0,1.59-.89,1.17,1.17,0,0,0,.29-1.59c-.53-.54-1.43-.09-2,.38L221,193.9a2.78,2.78,0,0,1-1.34.71,1,1,0,0,1-1.14-.77,1.39,1.39,0,0,1,.24-.75,13.78,13.78,0,0,1,4-4.41,7.07,7.07,0,0,0,1.77-1.44,1.82,1.82,0,0,0,.17-2.12,19.26,19.26,0,0,1-3.56,2.65c-.46.27-1.11.49-1.45.08s0-1,.37-1.45q2.85-3.35,5.69-6.68a2.83,2.83,0,0,1,1.8-1.22Z" style="fill:#fff"></path><path d="M225.21,149.31S238.58,154,242.08,162s16.9,46,16.06,53-3.07,15-9.13,15.36-13-5.81-13-5.81l-5.44-8.85.29-9.27-6.18-24.68Z" style="fill:#FACC15"></path><path d="M157.81,149.48c0,.06,27.62,33.84,27.62,33.84l3.75-31.3,5.23-15.41-36,8.89Z" style="fill:#967262"></path><g style="opacity:0.30000000000000004"><path d="M214.81,147.05c-1.63-.82-3.59-.17-5.24.6-9.34,4.41-19.49,9.76-22.23,19.71l-.11,6c.86,3.62,4.6,6,8.31,6.32s7.36-1.06,10.68-2.74a56.72,56.72,0,0,0,8.5-5.26c1.48-1.11,3-2.47,3.29-4.3.37-2.5-1.73-4.68-2.2-7.16-.45-2.31.54-4.63,1-6.94S216.92,148.1,214.81,147.05Z"></path></g><path d="M144,199.05a2.47,2.47,0,0,1,.27.58l.68,1.7c.57,1.49,1.39,3.64,2.37,6.31,2,5.34,4.49,12.79,7.32,21,1.43,4.1,2.82,8,4.1,11.53.64,1.77,1.23,3.46,1.85,5a24.52,24.52,0,0,0,2.11,4.1,15.63,15.63,0,0,0,4.71,4.65c1.35.83,2.18,1.15,2.15,1.2a2.94,2.94,0,0,1-.6-.22,11.94,11.94,0,0,1-1.65-.81,15,15,0,0,1-4.91-4.62,23.91,23.91,0,0,1-2.21-4.13c-.65-1.56-1.25-3.24-1.91-5-1.3-3.53-2.71-7.42-4.13-11.53-2.8-8.18-5.33-15.59-7.18-21-.92-2.65-1.67-4.8-2.21-6.37l-.59-1.74A3.38,3.38,0,0,1,144,199.05Z" style="fill:#263238"></path><path d="M185.3,184.39a1.67,1.67,0,0,1-.26-.3l-.71-.91c-.62-.79-1.52-2-2.7-3.4a109.87,109.87,0,0,0-10.43-11.1l.4-.17c-.11,4.58-.23,9.72-.36,15.14,0,.48,0,1,0,1.4l0,1.07-.46-1c-4.25-8.71-8.06-16.54-10.84-22.26-1.34-2.8-2.42-5.08-3.21-6.72-.35-.76-.63-1.37-.84-1.84a4.61,4.61,0,0,1-.27-.65,3.09,3.09,0,0,1,.36.61c.24.45.55,1,.93,1.79l3.36,6.65c2.82,5.7,6.68,13.5,11,22.19l-.49.11c0-.45,0-.92,0-1.4.15-5.42.28-10.56.4-15.14l0-.53.38.36a101.71,101.71,0,0,1,10.33,11.27c1.15,1.47,2,2.67,2.6,3.49l.65.95A1.61,1.61,0,0,1,185.3,184.39Z" style="fill:#263238"></path><path d="M224.62,208.82c.11.1-8,8.73-18,19.27s-18.28,19-18.38,18.91,7.95-8.72,18-19.27S224.52,208.72,224.62,208.82Z" style="fill:#263238"></path><path d="M209.63,252.31a23.74,23.74,0,0,1-.78-3.13c-.45-1.94-1.13-4.6-2.06-7.48s-1.95-5.44-2.73-7.27a27.35,27.35,0,0,1-1.21-3,17,17,0,0,1,1.55,2.84,60.14,60.14,0,0,1,2.88,7.26,59.28,59.28,0,0,1,1.93,7.56A16,16,0,0,1,209.63,252.31Z" style="fill:#263238"></path><path d="M141.93,197.39a60.13,60.13,0,0,1-6.71-4.24,60.11,60.11,0,0,1-6.43-4.66,59.68,59.68,0,0,1,6.72,4.23A60.12,60.12,0,0,1,141.93,197.39Z" style="fill:#263238"></path><path d="M249,230.3s-.12,0-.35,0h-1a9.47,9.47,0,0,1-1.64-.13,13.37,13.37,0,0,1-2.18-.48,14.54,14.54,0,0,1-5.16-3,17.8,17.8,0,0,1-4.42-6.23h0v0c-.94-3.8-2-8-3.08-12.46-2-8.46-3.89-16.11-5.24-21.73l-1.54-6.6-.39-1.8a3,3,0,0,1-.1-.63,2.48,2.48,0,0,1,.21.61q.18.69.48,1.77c.42,1.62,1,3.84,1.69,6.56,1.4,5.61,3.3,13.25,5.4,21.7,1.08,4.44,2.11,8.67,3,12.47v0a17.84,17.84,0,0,0,4.25,6.11,14.43,14.43,0,0,0,5,3A20.78,20.78,0,0,0,249,230.3Z" style="fill:#263238"></path><path d="M151.33,230.92a18.32,18.32,0,0,1-2,.44,13.6,13.6,0,0,0-7.8,5.31,19.73,19.73,0,0,1-1.13,1.68,5.08,5.08,0,0,1,.82-1.88,11.87,11.87,0,0,1,3.44-3.58,11.67,11.67,0,0,1,4.59-1.89A4.84,4.84,0,0,1,151.33,230.92Z" style="fill:#263238"></path><path d="M151.51,229.78a14.77,14.77,0,0,1-4.69,1.78,14.53,14.53,0,0,1-5,.62c0-.15,2.19-.46,4.85-1.12S151.45,229.64,151.51,229.78Z" style="fill:#263238"></path><path d="M148.38,174.23c.47-.65,1.09-1.07,1.46-1.56s1.2-.72,1.6-.24,0,1.33-.52,1.85c1.63.07,2.86-2.15,4.43-1.71a2,2,0,0,1,1,2.65,5,5,0,0,1-2.27,2.17,8.26,8.26,0,0,0-2.56,1.87c-.34.44-.56,1.11-.19,1.53.62.72,2.09-.13,2.64.64.38.52-.07,1.22-.51,1.69l-4.71,5.16a3.58,3.58,0,0,1-1.45,1.12,1.23,1.23,0,0,1-1.54-.63,1.44,1.44,0,0,1,.78-1.5,11.7,11.7,0,0,0,1.59-.88,1.16,1.16,0,0,0,.28-1.59c-.52-.55-1.42-.09-2,.37l-5.51,4.33a2.78,2.78,0,0,1-1.34.71,1,1,0,0,1-1.14-.77,1.36,1.36,0,0,1,.24-.75,13.68,13.68,0,0,1,4.05-4.41,7.25,7.25,0,0,0,1.76-1.44,1.82,1.82,0,0,0,.18-2.12,20.08,20.08,0,0,1-3.56,2.65c-.46.27-1.11.48-1.45.08s0-1,.36-1.46l5.7-6.67a2.86,2.86,0,0,1,1.8-1.23Z" style="fill:#fff"></path><path d="M190.4,187.81c.46-.65,1.08-1.07,1.46-1.56s1.2-.72,1.59-.24,0,1.33-.52,1.85c1.63.07,2.86-2.15,4.43-1.71a2,2,0,0,1,1,2.65,5,5,0,0,1-2.27,2.16,8.37,8.37,0,0,0-2.57,1.88c-.34.44-.56,1.11-.19,1.53.63.71,2.09-.13,2.65.64.37.52-.08,1.22-.51,1.69l-4.72,5.16A3.58,3.58,0,0,1,189.3,203a1.23,1.23,0,0,1-1.54-.64,1.43,1.43,0,0,1,.78-1.49,12.21,12.21,0,0,0,1.59-.88c.46-.39.71-1.16.29-1.59s-1.43-.09-2,.37l-5.5,4.33a3,3,0,0,1-1.35.71,1,1,0,0,1-1.14-.77,1.36,1.36,0,0,1,.24-.75,13.57,13.57,0,0,1,4-4.41,7.3,7.3,0,0,0,1.77-1.44,1.82,1.82,0,0,0,.17-2.12,19.72,19.72,0,0,1-3.56,2.65c-.45.26-1.11.48-1.45.08s0-1,.37-1.46q2.85-3.33,5.69-6.68a2.91,2.91,0,0,1,1.8-1.22Z" style="fill:#fff"></path><path d="M174.39,227.62c.47-.65,1.09-1.07,1.46-1.56s1.2-.71,1.6-.24,0,1.34-.52,1.85c1.63.07,2.86-2.15,4.43-1.71a2,2,0,0,1,1,2.65,5,5,0,0,1-2.27,2.17,8.26,8.26,0,0,0-2.56,1.87c-.34.44-.56,1.11-.19,1.53.62.72,2.09-.13,2.64.64.38.52-.07,1.22-.51,1.69l-4.71,5.16a3.58,3.58,0,0,1-1.45,1.12,1.23,1.23,0,0,1-1.54-.63,1.44,1.44,0,0,1,.78-1.5,10.23,10.23,0,0,0,1.59-.88,1.16,1.16,0,0,0,.28-1.59c-.52-.55-1.42-.09-2,.37l-5.51,4.33a2.78,2.78,0,0,1-1.34.71,1,1,0,0,1-1.14-.77,1.36,1.36,0,0,1,.24-.75,13.78,13.78,0,0,1,4-4.41,6.85,6.85,0,0,0,1.76-1.44,1.82,1.82,0,0,0,.18-2.12,19.6,19.6,0,0,1-3.56,2.65c-.46.27-1.11.49-1.45.08s0-1,.36-1.45l5.7-6.68a2.86,2.86,0,0,1,1.8-1.23Z" style="fill:#fff"></path><path d="M222.16,224.12c.46-.65,1.09-1.07,1.46-1.56s1.2-.72,1.6-.24-.05,1.33-.52,1.85c1.63.07,2.86-2.15,4.43-1.71a2,2,0,0,1,1,2.65,5,5,0,0,1-2.27,2.16,8.45,8.45,0,0,0-2.56,1.88c-.34.44-.56,1.11-.19,1.53.62.71,2.09-.13,2.64.64.38.52-.08,1.22-.51,1.69l-4.72,5.16a3.52,3.52,0,0,1-1.45,1.12,1.24,1.24,0,0,1-1.54-.64,1.42,1.42,0,0,1,.79-1.49,11.59,11.59,0,0,0,1.58-.88c.46-.39.71-1.16.29-1.59s-1.42-.09-2,.37l-5.5,4.33a2.9,2.9,0,0,1-1.35.71,1,1,0,0,1-1.14-.77,1.3,1.3,0,0,1,.25-.75,13.57,13.57,0,0,1,4.05-4.41,7.44,7.44,0,0,0,1.76-1.44,1.82,1.82,0,0,0,.18-2.12,20.08,20.08,0,0,1-3.56,2.65c-.46.27-1.12.48-1.46.08s0-1,.37-1.46l5.7-6.67a2.83,2.83,0,0,1,1.8-1.23Z" style="fill:#fff"></path><path d="M203.92,229.47a1.78,1.78,0,0,1-.27-.41l-.7-1.23c-.6-1.06-1.44-2.63-2.43-4.58-2-3.9-4.61-9.38-7.18-15.55s-4.61-11.89-6-16.06c-.68-2.09-1.2-3.78-1.54-5-.15-.54-.27-1-.37-1.36a1.78,1.78,0,0,1-.1-.49,2,2,0,0,1,.2.46c.12.36.28.8.47,1.33.42,1.23,1,2.89,1.69,4.9,1.44,4.13,3.53,9.81,6.09,16s5.11,11.65,7,15.58c.93,1.92,1.7,3.49,2.28,4.66l.61,1.27A1.82,1.82,0,0,1,203.92,229.47Z" style="fill:#263238"></path><path d="M258.18,214.14c0,.75-3.46,2.32-4.2,2.24l-.87-.27c-.56.57-1.24.89-1.68,1.32s-1.3.52-1.62,0,.25-1.31.8-1.75c-1.6-.31-3.16,1.69-4.64,1a2,2,0,0,1-.57-2.77,5,5,0,0,1,2.58-1.79,8.31,8.31,0,0,0,2.82-1.45c.4-.39.72-1,.42-1.49-.5-.8-2.08-.19-2.51-1-.29-.57.26-1.19.77-1.59,1.81-1.46,4.3-3.49,6.12-4.95C255.6,201.59,258.11,210.72,258.18,214.14Z" style="fill:#fff"></path><g style="opacity:0.30000000000000004"><path d="M188.5,246.44c14.5-7.91,27.44-20.65,34.46-35.6Z"></path></g><g style="opacity:0.30000000000000004"><path d="M140.43,238.35c2.84-6.1,8.43-7.77,13.86-7.7a1.3,1.3,0,0,0-.93-1.47,3.64,3.64,0,0,0-1.91,0,21.34,21.34,0,0,0-7.5,2.57,7.49,7.49,0,0,0-3.43,6.39"></path></g><g style="opacity:0.30000000000000004"><path d="M155.73,153.86a137.39,137.39,0,0,0,17,38.17,22.1,22.1,0,0,0,3.36-14.64,17,17,0,0,0,8.27,5.82c-3.85-5.29-7.85-10.32-12.85-14.53,0,0-.43,17-.42,16.53-5.23-10.51-10.32-20.86-15.38-31.35"></path></g><path d="M199.79,106.66c-1.49,4.85-3.61,8.58-8.31,10.49-4.11,1.67-8.76,1.35-13.1.46-14.11-2.91-28.92-10.43-36.41-22.73l4-8.72c4.23-6.65,14.57-14.53,26.57-10.63a19.94,19.94,0,0,1,18.81,4.34C200.55,87.7,199.79,106.66,199.79,106.66Z" style="fill:#263238"></path><path d="M165.89,82.17c-8.24-1-18.88,9-19.56,17.29-.76,9.2-1.32,20.46-.37,27.35,1.93,13.86,12.49,15.82,12.49,15.82l-.51,7.05,31.56-6.06,1.36-49.43.17-4.46Z" style="fill:#967262"></path><path d="M151.46,109.44a1.77,1.77,0,0,0,1.67,1.82A1.7,1.7,0,0,0,155,109.7a1.77,1.77,0,0,0-1.67-1.82A1.7,1.7,0,0,0,151.46,109.44Z" style="fill:#263238"></path><path d="M149.14,105.39c.21.23,1.57-.73,3.48-.69s3.29,1,3.5.79-.11-.52-.71-1a4.94,4.94,0,0,0-2.8-.92,4.71,4.71,0,0,0-2.78.84C149.24,104.87,149,105.28,149.14,105.39Z" style="fill:#263238"></path><path d="M169.26,110.13a1.78,1.78,0,0,0,1.67,1.82,1.7,1.7,0,0,0,1.86-1.56,1.78,1.78,0,0,0-1.67-1.83A1.7,1.7,0,0,0,169.26,110.13Z" style="fill:#263238"></path><path d="M167.87,106.11c.22.23,1.58-.73,3.49-.69s3.28,1,3.49.79-.11-.52-.71-1a4.91,4.91,0,0,0-2.79-.92,4.68,4.68,0,0,0-2.78.84C168,105.59,167.77,106,167.87,106.11Z" style="fill:#263238"></path><path d="M160.68,120.11a13.29,13.29,0,0,0-3.09-.61c-.48-.06-.94-.17-1-.5a2.45,2.45,0,0,1,.36-1.44c.48-1.17,1-2.4,1.51-3.68,2.1-5.24,3.63-9.55,3.42-9.63s-2.09,4.09-4.19,9.33c-.51,1.29-1,2.53-1.45,3.71a2.74,2.74,0,0,0-.29,1.9,1.19,1.19,0,0,0,.79.73,3.37,3.37,0,0,0,.82.13A12.22,12.22,0,0,0,160.68,120.11Z" style="fill:#263238"></path><path d="M158.45,142.67a36.61,36.61,0,0,0,19.07-4.59s-5.05,9.54-19.32,8Z" style="fill:#77574a"></path><path d="M161.4,124.73a3.41,3.41,0,0,1,3.1-1.22,3.11,3.11,0,0,1,2.14,1.2,2,2,0,0,1,.11,2.28,2.3,2.3,0,0,1-2.51.58,7.07,7.07,0,0,1-2.41-1.5,2.2,2.2,0,0,1-.53-.57.63.63,0,0,1,0-.71" style="fill:#77574a"></path><path d="M166.26,121.54c-.31,0-.35,2-2.15,3.48s-4,1.17-4,1.46c0,.12.48.41,1.41.45a5.14,5.14,0,0,0,3.36-1.1,4.48,4.48,0,0,0,1.67-2.92C166.63,122.05,166.41,121.53,166.26,121.54Z" style="fill:#263238"></path><path d="M167.53,98.63c.17.52,2.08.31,4.31.62s4,1,4.34.5c.14-.22-.17-.71-.89-1.23a7.37,7.37,0,0,0-3.2-1.19,7.2,7.2,0,0,0-3.39.34C167.87,98,167.45,98.38,167.53,98.63Z" style="fill:#263238"></path><path d="M150,99.88c.32.44,1.65,0,3.22,0s2.92.35,3.23-.1c.14-.22-.06-.65-.64-1.08a4.45,4.45,0,0,0-2.61-.76,4.55,4.55,0,0,0-2.59.82C150,99.23,149.8,99.67,150,99.88Z" style="fill:#263238"></path><path d="M189.75,88.35c-1.11-2.33-3.84-3.29-6.26-4.17-3.42-1.24-6.74-2.77-10.23-3.79a20.89,20.89,0,0,0-10.77-.65c-3.65.88-6.81,3.15-9.6,5.66-3.68,3.31-7,7.37-7.94,12.23l0,1.67c7.93-2.25,15.82-10.54,21.56-16.45C171.46,89.75,179.7,102,187,105c.49-3.53,3-8.65,3.28-12.2A9.08,9.08,0,0,0,189.75,88.35Z" style="fill:#263238"></path><path d="M216.42,144.15c-.54-2.76-3.27-4.43-5.66-5.91s-4.95-3.6-4.81-6.41,3.27-5.23,3-8.16-3.9-4.49-5.83-6.9c-2.8-3.48-3.34-5.65-3.34-10.11,0-8.73-3.49-20.13-11.18-24.29L178.56,90.8c2.92,8.15,5.88,16.67,4.86,25.28-.61,5.1-2.61,10.06-2.32,15.19.31,5.51,3.22,10.53,4.21,15.95.94,5.14.13,10.43.39,15.65s2,10.86,6.42,13.63l16.69-8c1.81-.87,3.85-2,4.11-4s-1.51-3.76-2-5.76C209.72,153.51,217.44,149.41,216.42,144.15Z" style="fill:#263238"></path><path d="M199.51,101.49a12.4,12.4,0,0,1-2.47.82,32.37,32.37,0,0,1-6.22,1.11,18.76,18.76,0,0,1-6.28-.68,9,9,0,0,1-2.44-.95c.05-.21,3.81,1.44,8.69,1.11a42.93,42.93,0,0,0,6.16-1A13.91,13.91,0,0,1,199.51,101.49Z" style="fill:#455a64"></path><path d="M199.83,104.7a8.54,8.54,0,0,1-2.25,1.23,16.65,16.65,0,0,1-6.05,1.3,21.52,21.52,0,0,1-6.14-.84,10.23,10.23,0,0,1-2.4-.87,17.22,17.22,0,0,1,2.49.51,25.89,25.89,0,0,0,6,.68,19.17,19.17,0,0,0,5.93-1.12A24.14,24.14,0,0,1,199.83,104.7Z" style="fill:#455a64"></path><path d="M141.2,99.53a22.63,22.63,0,0,1,2.65-.22,22.85,22.85,0,0,1,2.64-.42,6,6,0,0,1-5.29.64Z" style="fill:#455a64"></path><path d="M140.7,101.11c.09-.12,1.15.61,2.62,1.11s2.75.59,2.75.75a4.54,4.54,0,0,1-2.92-.26A4.46,4.46,0,0,1,140.7,101.11Z" style="fill:#455a64"></path><path d="M187.45,169.79a2.66,2.66,0,0,1-.72-.21,5.13,5.13,0,0,1-1.79-1.26,5.94,5.94,0,0,1-1.5-3.11,5,5,0,0,1,.16-2.19,9.2,9.2,0,0,1,1.05-2.2,19.12,19.12,0,0,0,1.29-2.27,7.09,7.09,0,0,0,.57-2.7,11.85,11.85,0,0,0-1.79-5.86,63.43,63.43,0,0,0-4.08-5.63,15.89,15.89,0,0,1-3.23-6.81,18.28,18.28,0,0,1,.44-7.54,45.41,45.41,0,0,1,2.35-6.61c.86-2.05,1.7-4,2.33-5.85a26.08,26.08,0,0,0,1.27-5.31,18.32,18.32,0,0,0-.47-7.83,11.31,11.31,0,0,0-1.23-2.62,3.28,3.28,0,0,1,.47.59,9,9,0,0,1,1,2,18,18,0,0,1,.64,7.94,26.1,26.1,0,0,1-1.23,5.4c-.62,1.89-1.45,3.84-2.3,5.9a44.63,44.63,0,0,0-2.29,6.55,17.79,17.79,0,0,0-.43,7.32,15.47,15.47,0,0,0,3.13,6.6,62.72,62.72,0,0,1,4.09,5.69,12.26,12.26,0,0,1,1.8,6.11,7.47,7.47,0,0,1-.63,2.85A20.08,20.08,0,0,1,185,161a9.58,9.58,0,0,0-1.05,2.1,4.86,4.86,0,0,0-.18,2,5.74,5.74,0,0,0,1.36,3A6,6,0,0,0,187.45,169.79Z" style="fill:#263238"></path><path d="M173.07,75.38a13.78,13.78,0,0,0-4,2.74,14,14,0,0,0-2.4,4.2,2.88,2.88,0,0,1,.21-1.46,8.36,8.36,0,0,1,4.74-5.15A2.93,2.93,0,0,1,173.07,75.38Z" style="fill:#455a64"></path><path d="M226.06,169.38l-6.81-10.73-.47-10.55,2.67-7.22s2.13-.51,2.48,2a13.87,13.87,0,0,1-.79,5.62l1.46,5.12s.48.55.93-1.58-.33-17.92-.34-19,.08-3.67,1.69-3.43S229,132,229,133.09s1.18,11.69,1.18,11.69.38.95.76.81-.34-11.37-.41-13.14-.47-5.71,1.61-5.71,2.08,2,2.2,4.14,1.47,14.33,1.47,14.33.32.76.62-.26.67-14.24.9-14.86,1.45-1.44,2.39.06.72,5,.59,11.15c-.12,5.55-.29,7.85.34,8.29s3-3,3-3,2.84-7.32,5.25-7.06.79,2.13.38,3.83c-.35,1.44-4.56,10-4.65,10.11s-4.23,15.36-4.23,15.36l9.14,17.47a16.37,16.37,0,0,1,1.77,9.92c-.55,3.73-2.46,7.89-7.93,9.59-4,1.26-7-.54-9-2.66a13.27,13.27,0,0,1-3.23-6.7c-1.17-6.74-5.11-27.09-5.11-27.09Z" style="fill:#967262"></path><path d="M232.86,161.68c-.09,0,0-.82-.22-2.06a8.27,8.27,0,0,0-2.22-4.29,5.77,5.77,0,0,0-3.43-1.75,3.59,3.59,0,0,0-2.34.53l-.1.06,0-.09c-.13-.28-.19-.44-.16-.45s.13.1.32.36l-.14,0a3.36,3.36,0,0,1,2.49-.8,5.81,5.81,0,0,1,3.77,1.8,7.9,7.9,0,0,1,2.22,4.6A4.23,4.23,0,0,1,232.86,161.68Z" style="fill:#77574a"></path><path d="M238.61,153.57c.09.13-.83.92-1.73,2.09a21.09,21.09,0,0,1-1.6,2.19,6.41,6.41,0,0,1,3.33-4.28Z" style="fill:#77574a"></path><path d="M146.21,249.1a18.5,18.5,0,0,0,4.88,12,95.7,95.7,0,0,0,7.08,6.92l17.22,7.72s4.49.68,9-3.71a15,15,0,0,0,3.5-4.5s5.16,2.31,7.18,2.22c3.4-.15,2.86-2.55,2.86-2.55s-11.37-6.26-14.07-8.68-10.48-4-16-3.29l-3.2-.63-1.16-4.3s-6.24-9.29-12-6S146.21,249.1,146.21,249.1Z" style="fill:#967262"></path></g></svg>
